<svg width="217" height="454" viewBox="0 0 217 454" fill="none" xmlns="http://www.w3.org/2000/svg">
<path fill-rule="evenodd" clip-rule="evenodd" d="M191.371 7.22537H25.6293C15.8821 7.22537 6.22848 16.9424 6.22848 26.7534V427.247C6.22848 437.058 15.8821 446.775 25.6293 446.775H191.371C201.118 446.775 210.771 437.058 210.771 427.247V26.7534C210.771 16.9424 201.118 7.22537 191.371 7.22537ZM27.6765 0C12.3912 0 0 12.4725 0 27.858V426.142C0 441.528 12.3912 454 27.6765 454H189.323C204.609 454 217 441.528 217 426.142V27.858C217 12.4725 204.609 0 189.323 0H27.6765Z" fill="#384A79"/>
<path d="M1.01023 27.858C1.01023 13.0242 12.9553 1.01023 27.6765 1.01023H189.323C204.045 1.01023 215.99 13.0242 215.99 27.858V426.142C215.99 440.976 204.045 452.99 189.323 452.99H27.6765C12.9554 452.99 1.01023 440.976 1.01023 426.142V27.858Z" stroke="#485A86" stroke-width="2.02045"/>
<path d="M44.4316 3.69824H172.941L168.912 5.32086H167.301C165.966 5.32086 164.884 6.41057 164.884 7.7548V8.16045C164.884 15.1056 159.293 20.7358 152.396 20.7358H64.977C58.0799 20.7358 52.4886 15.1056 52.4886 8.16045V7.7548C52.4886 6.41057 51.4065 5.32086 50.0715 5.32086H48.4601L44.4316 3.69824Z" fill="#384A79"/>
<ellipse cx="131.5" cy="11.5253" rx="3.5" ry="3.50773" fill="#171F4B"/>
<path d="M96.3984 11.8003C96.3984 10.6933 97.3516 9.7959 98.5275 9.7959H118.269C119.445 9.7959 120.398 10.6933 120.398 11.8003C120.398 12.9073 119.445 13.8047 118.269 13.8047H98.5275C97.3516 13.8047 96.3984 12.9073 96.3984 11.8003Z" fill="#171F4B"/>
</svg>
