<?xml version="1.0" encoding="utf-8"?>
<!-- Generator: Adobe Illustrator 16.0.0, SVG Export Plug-In . SVG Version: 6.00 Build 0)  -->
<!DOCTYPE svg PUBLIC "-//W3C//DTD SVG 1.1//EN" "http://www.w3.org/Graphics/SVG/1.1/DTD/svg11.dtd">
<svg version="1.1" id="Layer_1" xmlns="http://www.w3.org/2000/svg" xmlns:xlink="http://www.w3.org/1999/xlink" x="0px" y="0px"
	 width="450px" height="637px" viewBox="0 0 595.281 841.89" enable-background="new 0 0 595.281 841.89"
	 xml:space="preserve">
<g>
	<path id="cloud" fill="#C6E3F7" d="M281.624,471.044c0,0-6.655,101.287-6.659,101.369c0.294-4.498-10.085-6.275-12.659-5.898
		c-18.772,2.768-33.674,32.479-14.718,45.115c0,0-30.336,5.18-31.076,32.557c0,0-18.497-12.576-36.996,8.881
		c1.793-2.08-18.256-16.43-19.617-17.188c-16.767-9.354-38.855-5.258-53.704,6.051c-9.318,7.094-19.101,20.877-21.028,32.711
		c-2.871,17.627,4.63,34.266,15.177,47.977c0,0,11.84,14.059,23.678,14.799l318.901,0.738c0,0,63.633-6.66,48.096-72.514
		c0,0-6.658-34.031-44.395-36.992c0,0-36.258-4.441-54.754,30.334c0,0,7.396-44.395-34.774-45.135
		c3.905,0.07,6.011-10.674,6.041-12.945c0.146-10.461-5.47-18.578-15.609-21.457c-10.013-2.848-18.671,3.686-23.729,12.207
		L316.4,471.044H281.624z"/>
	<g id="XMLID_2_">
		<g>
			<path fill="#C6E3F7" d="M101.014,724.025c-2.331-5.662,3.608-14.385,10.08-11.574c0,0,62.022,26.859,62.075,26.883
				c3.217,1.402,6.413,3.25,8.262,6.422c2.513,4.303,0.566,10.086-2.963,13.123c-2.877,2.477-6.904,2.781-10.178,0.992
				c-1.637-0.896-3.037-2.213-4.136-3.721c-0.552-0.771-2.528-3.512-2.26-4.502c-2.724,10.01-13.765,16.244-23.662,12.771
				c-3.903-1.371-7.207-3.588-9.683-6.891c-1.097-1.465-2.035-3.057-2.552-4.826c-0.212-0.768-1.033-5.361-0.009-5.762
				c-9.312,3.641-18.896-3.33-20.516-12.76c-0.387-2.211,0.203-5.514,1.974-7.117C105.793,728.566,101.576,725.41,101.014,724.025z"
				/>
		</g>
	</g>
	<g id="XMLID_3_">
		<g>
			<path fill="#C6E3F7" d="M168.766,750.005c-3.415-7.438,0.826-23.85,7.819-22.922c0,0,67.014,8.813,67.07,8.82
				c3.477,0.471,7.02,1.633,9.475,5.518c3.335,5.268,2.508,15.113-0.424,21.59c-2.392,5.277-6.348,7.834-9.957,6.803
				c-1.805-0.516-3.454-1.803-4.84-3.533c-0.7-0.891-3.198-4.053-3.121-5.703c-0.787,16.705-10.593,31.967-21.13,31.805
				c-4.155-0.066-7.876-1.734-10.981-5.494c-1.375-1.668-2.617-3.611-3.475-6.049c-0.359-1.061-2.063-7.654-1.119-8.797
				c-8.582,10.398-19.481,4.73-22.914-8.834c-0.812-3.176-0.86-8.529,0.596-11.9C174.407,754.458,169.594,751.83,168.766,750.005z"
				/>
		</g>
	</g>
	<g id="XMLID_10_">
		<g>
			<path fill="#C6E3F7" d="M234.937,772.533c-3.781-4.816-0.433-14.824,6.559-13.877c0,0,66.986,9.01,67.042,9.018
				c3.477,0.477,7.055,1.387,9.694,3.938c3.587,3.459,3.283,9.553,0.714,13.436c-2.099,3.164-5.892,4.551-9.527,3.719
				c-1.818-0.416-3.523-1.305-4.99-2.457c-0.741-0.592-3.387-2.693-3.396-3.719c0.096,10.371-8.838,19.371-19.307,18.715
				c-4.128-0.26-7.91-1.494-11.189-4c-1.454-1.111-2.788-2.391-3.767-3.953c-0.413-0.68-2.451-4.879-1.573-5.543
				c-7.973,6.031-19.09,1.926-23.209-6.709c-0.973-2.021-1.302-5.361-0.033-7.387C240.77,775.603,235.854,773.712,234.937,772.533z"
				/>
		</g>
	</g>
	<g id="XMLID_4_">
		<g>
			<path fill="#FFFFFF" d="M156.256,740.013c-4.948-3.594-4.453-14.145,2.533-15.129c0,0,66.907-9.578,66.965-9.576
				c3.473-0.5,7.173-0.6,10.399,1.139c4.395,2.359,5.77,8.297,4.354,12.732c-1.157,3.615-4.429,5.98-8.165,6.172
				c-1.863,0.096-3.745-0.297-5.471-1.006c-0.874-0.367-3.992-1.668-4.281-2.652c2.926,9.953-3.219,21.045-13.48,23.266
				c-4.042,0.885-8.019,0.715-11.847-0.805c-1.71-0.674-3.343-1.537-4.699-2.768c-0.592-0.541-3.697-4.037-3.024-4.914
				c-6.039,7.977-17.854,7.051-24.169-0.137c-1.484-1.67-2.701-4.795-2.034-7.1C162.707,741.392,157.46,740.9,156.256,740.013z"/>
		</g>
	</g>
	<g id="XMLID_5_">
		<g>
			<path fill="#C6E3F7" d="M316.819,783.298c-4.948-3.594-4.452-14.145,2.533-15.129c0,0,66.907-9.578,66.965-9.576
				c3.481-0.5,7.163-0.598,10.399,1.137c4.402,2.359,5.76,8.299,4.354,12.734c-1.166,3.615-4.43,5.98-8.165,6.172
				c-1.862,0.094-3.745-0.297-5.471-1.006c-0.874-0.367-3.992-1.67-4.281-2.652c2.916,9.953-3.219,21.043-13.471,23.264
				c-4.041,0.885-8.019,0.717-11.865-0.803c-1.7-0.674-3.323-1.541-4.688-2.768c-0.592-0.541-3.697-4.037-3.035-4.914
				c-6.02,7.973-17.844,7.051-24.159-0.137c-1.483-1.67-2.701-4.795-2.043-7.098C323.27,784.677,318.023,784.185,316.819,783.298z"
				/>
		</g>
	</g>
	<g id="XMLID_6_">
		<g>
			<path fill="#C6E3F7" d="M381.56,757.771c-4.947-3.596-4.452-14.145,2.533-15.129c0,0,66.908-9.578,66.965-9.578
				c3.482-0.5,7.164-0.596,10.4,1.141c4.402,2.357,5.76,8.297,4.352,12.73c-1.166,3.617-4.428,5.982-8.164,6.174
				c-1.861,0.096-3.744-0.297-5.471-1.006c-0.873-0.367-3.992-1.67-4.281-2.652c2.916,9.953-3.219,21.043-13.471,23.264
				c-4.041,0.885-8.018,0.715-11.865-0.801c-1.699-0.676-3.322-1.543-4.689-2.771c-0.59-0.541-3.697-4.035-3.033-4.912
				c-6.021,7.973-17.844,7.051-24.16-0.137c-1.483-1.672-2.7-4.797-2.043-7.098C388.011,759.15,382.764,758.658,381.56,757.771z"/>
		</g>
	</g>
	<g id="XMLID_7_">
		<g>
			<path fill="#C6E3F7" d="M414.693,740.554c-4.947-3.596-4.451-14.146,2.533-15.129c0,0,66.906-9.58,66.965-9.578
				c3.482-0.5,7.164-0.598,10.398,1.139c4.404,2.359,5.762,8.299,4.355,12.732c-1.166,3.617-4.43,5.982-8.164,6.172
				c-1.863,0.096-3.746-0.295-5.473-1.004c-0.873-0.369-3.992-1.67-4.279-2.654c2.916,9.955-3.221,21.045-13.473,23.266
				c-4.041,0.883-8.018,0.715-11.863-0.803c-1.701-0.674-3.324-1.541-4.691-2.77c-0.592-0.541-3.697-4.035-3.033-4.912
				c-6.02,7.973-17.844,7.051-24.16-0.137c-1.484-1.672-2.699-4.797-2.043-7.1C421.144,741.931,415.896,741.441,414.693,740.554z"/>
		</g>
	</g>
	<path fill="#FFFFFF" d="M273.484,578.333c-0.802,0.486-3.667,0.186-4.634,0.328c-6.791,1.002-14.145,2.797-17.395,9.498
		c-2.275,4.691-3.407,14.889,3.967,15.576c-4.343-2.063-2.073-11.18-0.57-14.563C258.204,581.638,267.297,582.08,273.484,578.333z"
		/>
	<path fill="#FFFFFF" d="M328.979,597.203c4.315-2.105,6.54-6.33,11.996-7.127c12.103-1.766,16.319,15.502,9.085,23.039
		c-1.348,1.404-2.707,3.023-4.344,4.1c1.912-1.256,4.205-7.314,4.623-9.541c0.75-3.998-0.524-8.205-3.233-11.213
		C347.106,596.46,343.408,590.173,328.979,597.203z"/>
	<path id="cloudw" fill="#FFFFFF" d="M291.244,483.625c0,0-8.851,159.303-8.879,159.818c0.232-4.188-9.094-7.756-11.91-8.033
		c-7.44-0.734-15.726,1.709-20.487,7.689c-5.221,6.561-4.854,17.012,2.059,22.543c-2.548-2.037-10.809-0.467-13.633,0.086
		c-8.82,1.725-16.102,7.143-19.663,15.453c0.504-1.176-5.744-6.793-6.455-7.445c-4.904-4.516-10.756-8.156-17.084-10.285
		c-16.493-5.551-34.146,1.5-41.358,17.568c-6.865,15.299-5.998,35.77,5.893,48.457c4.081,4.355,13.538,10.898,19.789,10.898
		c0,0,247.354-1.48,247.87-1.48c5.535-0.031,12.467-4.092,16.824-7.096c10.541-7.264,14.545-22.232,11.465-34.34
		c-3.045-11.979-14.17-21.971-25.936-24.658c-5.016-1.146-10.275-1.242-15.246,0.188c-3.146,0.908-6.063,2.408-8.785,4.211
		c-1.449,0.955-8.559,5.252-8.658,6.941c0.963-16.383-8.088-35.645-24.508-40.637c-9.443-2.873-19.264-2.6-28.963-1.674
		c3.289-0.318,2.668-8.678,2.457-10.76c-0.57-5.674-3.92-9.836-8.934-12.508c-3.521-1.877-7.747-2.867-11.708-2.012
		c-2.103,0.455-9.911,4.113-9.735,6.914c0-0.012-8.879-141.324-8.879-141.324L291.244,483.625z"/>
	
		<animate  fill="#FFF" from="M291.244,483.624c0,0-8.851,159.304-8.879,159.819c0.232-4.188-9.094-7.756-11.91-8.033   c-7.44-0.735-15.726,1.708-20.487,7.69c-5.221,6.56-4.854,17.011,2.059,22.542c-2.548-2.037-10.809-0.466-13.633,0.087   c-8.82,1.724-16.102,7.141-19.663,15.452c0.504-1.176-5.744-6.792-6.455-7.446c-4.904-4.514-10.756-8.155-17.084-10.284   c-16.493-5.551-34.146,1.5-41.358,17.569c-6.865,15.298-5.998,35.768,5.893,48.457c4.081,4.355,13.538,10.897,19.789,10.897   c0,0,247.354-1.479,247.871-1.48c5.534-0.032,12.467-4.091,16.823-7.095c10.542-7.265,14.546-22.234,11.465-34.341   c-3.045-11.979-14.17-21.971-25.935-24.658c-5.016-1.146-10.276-1.242-15.247,0.188c-3.146,0.908-6.062,2.408-8.784,4.21   c-1.45,0.956-8.56,5.252-8.659,6.943c0.964-16.384-8.088-35.645-24.507-40.637c-9.444-2.874-19.264-2.601-28.963-1.675   c3.289-0.317,2.667-8.678,2.456-10.759c-0.569-5.675-3.919-9.837-8.933-12.508c-3.522-1.877-7.747-2.868-11.708-2.012   c-2.103,0.455-9.911,4.114-9.735,6.915c0-0.013-8.879-141.324-8.879-141.324L291.244,483.624z" attributeType="XML" restart="always" calcMode="linear" additive="replace" to="M296.244,483.624c0,0-8.851,159.304-8.879,159.819c0.232-4.188-9.094-7.756-11.91-8.033   c-7.44-0.735-15.726,1.708-20.487,7.69c-5.221,6.56-4.854,17.011,2.059,22.542c-2.548-2.037-10.809-0.466-13.633,0.087   c-8.82,1.724-16.102,7.141-19.663,15.452c0.504-1.176-5.744-6.792-6.455-7.446c-4.904-4.514-10.756-8.155-17.084-10.284   c-16.493-5.551-34.146,1.5-41.358,17.569c-6.865,15.298-5.998,35.768,5.893,48.457c4.081,4.355,13.538,10.897,19.789,10.897   c0,0,247.354-1.479,247.871-1.48c5.534-0.032,12.467-4.091,16.823-7.095c10.542-7.265,14.546-22.234,11.465-34.341   c-3.045-11.979-14.17-21.971-25.935-24.658c-5.016-1.146-10.276-1.242-15.247,0.188c-3.146,0.908-6.062,2.408-8.784,4.21   c-1.45,0.956-8.56,5.252-8.659,6.943c0.964-16.384-8.088-35.645-24.507-40.637c-9.444-2.874-19.264-2.601-28.963-1.675   c3.289-0.317,2.667-8.678,2.456-10.759c-0.569-5.675-3.919-9.837-8.933-12.508c-3.522-1.877-7.747-2.868-11.708-2.012   c-2.103,0.455-9.911,4.114-9.735,6.915c0-0.013-8.879-141.324-8.879-141.324L291.244,483.624z" dur="50ms" begin="0s;cloudw2.end" attributeName="d" xlink:href="#cloudw" repeatCount="1" accumulate="none" id="cloudw1">
		</animate>
	
		<animate  fill="#FFF" from="M296.244,483.624c0,0-8.851,159.304-8.879,159.819c0.232-4.188-9.094-7.756-11.91-8.033   c-7.44-0.735-15.726,1.708-20.487,7.69c-5.221,6.56-4.854,17.011,2.059,22.542c-2.548-2.037-10.809-0.466-13.633,0.087   c-8.82,1.724-16.102,7.141-19.663,15.452c0.504-1.176-5.744-6.792-6.455-7.446c-4.904-4.514-10.756-8.155-17.084-10.284   c-16.493-5.551-34.146,1.5-41.358,17.569c-6.865,15.298-5.998,35.768,5.893,48.457c4.081,4.355,13.538,10.897,19.789,10.897   c0,0,247.354-1.479,247.871-1.48c5.534-0.032,12.467-4.091,16.823-7.095c10.542-7.265,14.546-22.234,11.465-34.341   c-3.045-11.979-14.17-21.971-25.935-24.658c-5.016-1.146-10.276-1.242-15.247,0.188c-3.146,0.908-6.062,2.408-8.784,4.21   c-1.45,0.956-8.56,5.252-8.659,6.943c0.964-16.384-8.088-35.645-24.507-40.637c-9.444-2.874-19.264-2.601-28.963-1.675   c3.289-0.317,2.667-8.678,2.456-10.759c-0.569-5.675-3.919-9.837-8.933-12.508c-3.522-1.877-7.747-2.868-11.708-2.012   c-2.103,0.455-9.911,4.114-9.735,6.915c0-0.013-8.879-141.324-8.879-141.324L291.244,483.624z" attributeType="XML" restart="always" calcMode="linear" additive="replace" to="M291.244,483.624c0,0-8.851,159.304-8.879,159.819c0.232-4.188-9.094-7.756-11.91-8.033   c-7.44-0.735-15.726,1.708-20.487,7.69c-5.221,6.56-4.854,17.011,2.059,22.542c-2.548-2.037-10.809-0.466-13.633,0.087   c-8.82,1.724-16.102,7.141-19.663,15.452c0.504-1.176-5.744-6.792-6.455-7.446c-4.904-4.514-10.756-8.155-17.084-10.284   c-16.493-5.551-34.146,1.5-41.358,17.569c-6.865,15.298-5.998,35.768,5.893,48.457c4.081,4.355,13.538,10.897,19.789,10.897   c0,0,247.354-1.479,247.871-1.48c5.534-0.032,12.467-4.091,16.823-7.095c10.542-7.265,14.546-22.234,11.465-34.341   c-3.045-11.979-14.17-21.971-25.935-24.658c-5.016-1.146-10.276-1.242-15.247,0.188c-3.146,0.908-6.062,2.408-8.784,4.21   c-1.45,0.956-8.56,5.252-8.659,6.943c0.964-16.384-8.088-35.645-24.507-40.637c-9.444-2.874-19.264-2.601-28.963-1.675   c3.289-0.317,2.667-8.678,2.456-10.759c-0.569-5.675-3.919-9.837-8.933-12.508c-3.522-1.877-7.747-2.868-11.708-2.012   c-2.103,0.455-9.911,4.114-9.735,6.915c0-0.013-8.879-141.324-8.879-141.324L291.244,483.624z" dur="80ms" begin="cloudw1.end" attributeName="d" xlink:href="#cloudw" repeatCount="1" accumulate="none" id="cloudw2">
		</animate>
	<g id="XMLID_1_">
		<g>
			<path fill="#C6E3F7" d="M425.921,705.332c10.986,9.943,6.166,34.229-11.41,34.295c0,0-168.404,0.754-168.545,0.754
				c-8.742,0.023-17.885-0.932-25.279-5.992c-10.041-6.859-11.388-21.088-6.379-30.922c4.087-8.014,12.97-12.453,22.231-11.697
				c4.631,0.377,9.143,1.887,13.16,4.084c2.032,1.133,9.285,5.15,9.663,7.525c-3.804-24.018,15.144-47.77,41.203-49.635
				c10.276-0.732,20.034,0.91,28.987,5.662c3.971,2.107,7.703,4.639,10.656,7.945c1.252,1.441,7.726,10.521,5.787,12.342
				c17.603-16.561,46.448-10.633,59.584,8.059c3.096,4.373,5.057,12.008,2.623,17.113
				C410.47,700.093,423.251,702.89,425.921,705.332z"/>
		</g>
	</g>
	<g id="XMLID_11_">
		<g>
			<path fill="#C6E3F7" d="M362.692,777.75c-4.948-3.596-4.452-14.146,2.533-15.129c0,0,66.907-9.578,66.964-9.578
				c3.482-0.5,7.164-0.596,10.4,1.139c4.402,2.359,5.76,8.299,4.354,12.732c-1.166,3.617-4.43,5.982-8.164,6.174
				c-1.863,0.094-3.746-0.297-5.471-1.006c-0.875-0.367-3.994-1.67-4.281-2.654c2.916,9.955-3.221,21.045-13.471,23.266
				c-4.043,0.885-8.02,0.715-11.867-0.803c-1.699-0.674-3.322-1.541-4.688-2.77c-0.592-0.539-3.697-4.035-3.035-4.912
				c-6.02,7.973-17.844,7.051-24.158-0.137c-1.484-1.672-2.702-4.797-2.045-7.1C369.143,779.126,363.896,778.636,362.692,777.75z"/>
		</g>
	</g>
	<g id="XMLID_8_">
		<g>
			<path fill="#C6E3F7" d="M427.308,734.806c10.488,11.346,5.889,39.043-10.893,39.119c0,0-160.77,0.861-160.905,0.861
				c-8.345,0.023-17.074-1.064-24.133-6.836c-9.586-7.824-10.872-24.055-6.09-35.271c3.902-9.141,12.382-14.205,21.224-13.344
				c4.421,0.432,8.729,2.152,12.563,4.66c1.939,1.291,8.864,5.873,9.225,8.582c-3.631-27.396,14.458-54.486,39.334-56.613
				c9.812-0.836,19.127,1.037,27.675,6.455c3.789,2.406,7.353,5.293,10.172,9.064c1.194,1.646,7.376,12.002,5.526,14.078
				c16.803-18.889,44.342-12.129,56.881,9.189c2.955,4.988,4.828,13.699,2.504,19.521
				C412.558,728.832,424.759,732.021,427.308,734.806z"/>
		</g>
	</g>
	<path fill="#FFFFFF" d="M426.277,654.882c0,0,23.248-10.602,37.506,0.885c0,0,22.627,16.492,10.537,37.994
		c0,0,3.104-33.871-27.895-40.057C446.427,653.705,431.544,653.998,426.277,654.882z"/>
	<path fill="#FFFFFF" d="M359.313,688.046c0,0,16.34-7.354,26.302,0.754c0,0,15.811,11.648,7.256,26.686
		c0,0,2.295-23.744-19.424-28.191C373.447,687.294,363.009,687.447,359.313,688.046z"/>
	<path fill="#FFFFFF" d="M146.643,656.031c-26.461-4.133-45.61,22.066-37.292,46.621c2.249,6.641,8.726,12.945,15.043,15.895
		c0,0-24.787-3.701-19.238-38.107C108.293,660.984,129.501,653.376,146.643,656.031z"/>
	<path fill="#C6E3F7" d="M207.685,673.419c-26.461-4.135-45.61,22.066-37.292,46.621c2.249,6.639,8.726,12.945,15.042,15.893
		c0,0-24.787-3.699-19.237-38.105C169.336,678.373,190.544,670.763,207.685,673.419z"/>
	<path fill="#FFFFFF" d="M258.73,744.38c-2.544,13.924,17.223,23.186,35.23,18.162c4.872-1.355,9.415-4.908,11.471-8.287
		c0,0-2.254,13.033-27.827,11.096C263.144,764.251,257.098,753.398,258.73,744.38z"/>
	<path fill="#FFFFFF" d="M279.033,720.027c0,0,5.179-26.27,23.308-29.229c0,0,31.875-7.504,38.875,14.932
		c0,0-10.756-17.148-35.914-11.971C305.302,693.761,290.871,694.871,279.033,720.027z"/>
	<path fill="#FFFFFF" d="M251.287,704.121c-0.802,0.484-3.668,0.184-4.635,0.326c-6.79,1.002-14.144,2.797-17.395,9.5
		c-2.275,4.689-3.407,14.887,3.967,15.574c-4.343-2.063-2.073-11.18-0.57-14.561C236.006,707.423,245.1,707.867,251.287,704.121z"/>
	<path fill="#FFFFFF" d="M408.46,717.298c2.912-1.418,4.412-4.27,8.09-4.807c8.162-1.189,11.004,10.453,6.127,15.535
		c-0.908,0.947-1.826,2.039-2.93,2.764c1.289-0.844,2.836-4.934,3.117-6.434c0.506-2.695-0.354-5.531-2.182-7.561
		C420.685,716.796,418.193,712.556,408.46,717.298z"/>
	<path fill="#FFFFFF" d="M326.021,754.804c0,0,22.939,11.84,43.656-12.209c0,0,9.619,3.326,13.318-4.07
		c0,0,1.106,11.098-11.842,7.029C371.154,745.554,353.028,771.083,326.021,754.804z"/>
	<path fill="#C6E3F7" d="M232.992,688.236c0,0,3.713-13.67,21.125-13.139c0,0,2.22-5.123,6.583-3.877c0,0-4.08-4.563-7.232,2.184
		C253.468,673.404,236.418,671.271,232.992,688.236z"/>
	<path fill="#C6E3F7" d="M313.441,634.566c4.316-2.104,6.54-6.328,11.996-7.125c12.104-1.766,16.318,15.502,9.085,23.037
		c-1.349,1.406-2.707,3.025-4.345,4.102c1.912-1.256,4.205-7.316,4.625-9.541c0.75-4-0.525-8.205-3.234-11.213
		C331.568,633.826,327.871,627.539,313.441,634.566z"/>
</g>
<g>
	<path fill="#0B8FBD" d="M360.126,310.442c0,0,43.453,14.194,36.5,50.116c-6.951,35.923-22.885,65.472-22.885,65.472
		s-15.354-50.409-29.55-50.119L360.126,310.442z"/>
	<path fill="#1897D4" d="M237.741,309.89c0,0-43.985,12.452-38.471,48.622s20.257,66.332,20.257,66.332s17.352-49.755,31.523-48.898
		L237.741,309.89z"/>
	<path fill="#2BACE2" d="M344.052,199.322c-10.858,11.111-27.37,18.166-45.838,18.065c-18.467-0.101-34.902-7.334-45.638-18.563
		c-10.536,24.847-18.752,54.285-18.926,85.892c-0.307,56.13,10.903,86.755,27.999,115.817l71.13,0.387
		c17.413-28.872,28.953-59.373,29.262-115.503C362.21,253.809,354.316,224.284,344.052,199.322z"/>
	<path fill="#07A7D8" d="M343.83,199.244c-10.859,11.111-27.371,18.166-45.838,18.065c-0.48-0.002-0.953-0.03-1.431-0.042v183.38
		l35.995,0.195c17.413-28.872,28.954-59.373,29.261-115.503C361.987,253.731,354.093,224.206,343.83,199.244z"/>
	<path id="flame3" fill="#FAAF3C" d="M318.687,442.501h-20.843H277c0,0-16.844,13.6-8.563,45.961c0,0,4.854-13.873,11.992-10.607
		c0,0-0.858,42.973,17.416,60.379c18.273-17.406,17.417-60.379,17.417-60.379c7.137-3.266,11.989,10.607,11.989,10.607
		C335.533,456.101,318.687,442.501,318.687,442.501z"/>
	
		<animate  fill="#FFF" from="M316.687,442.502h-20.843h-20.844c0,0-16.844,13.599-8.563,45.961c0,0,4.854-13.873,11.992-10.608   c0,0-0.858,42.972,17.416,60.379c18.273-17.407,17.417-60.379,17.417-60.379c7.137-3.265,11.99,10.608,11.99,10.608   C335.532,456.101,318.687,442.502,318.687,442.502z" attributeType="XML" restart="always" calcMode="linear" additive="replace" to="M320.687,442.502h-20.843h-20.844c0,0-16.844,13.599-8.563,45.961c0,0,4.854-13.873,11.992-10.608   c0,0-0.858,52.972,19.416,60.379c30.273-17.407,17.417-60.379,17.417-60.379c7.137-3.265,11.99,10.608,11.99,10.608   C335.532,456.101,328.687,452.502,328.687,452.502z" dur="50ms" begin="0s;flameanim4.end" attributeName="d" xlink:href="#flame3" repeatCount="1" accumulate="none" id="flameanim3">
		</animate>
	
		<animate  fill="#FFF" from="M320.687,442.502h-20.843h-20.844c0,0-16.844,13.599-8.563,45.961c0,0,4.854-13.873,11.992-10.608   c0,0-0.858,42.972,17.416,60.379c18.273-17.407,17.417-60.379,17.417-60.379c7.137-3.265,11.99,10.608,11.99,10.608   C335.532,456.101,328.687,452.502,328.687,452.502z" attributeType="XML" restart="always" calcMode="linear" additive="replace" to="M316.687,442.502h-20.843h-20.844c0,0-16.844,13.599-8.563,45.961c0,0,4.854-13.873,11.992-10.608   c0,0-0.858,42.972,17.416,60.379c18.273-17.407,17.417-60.379,17.417-60.379c7.137-3.265,11.99,10.608,11.99,10.608   C335.532,456.101,318.687,442.502,318.687,442.502z" dur="80ms" begin="flameanim3.end" attributeName="d" xlink:href="#flame3" repeatCount="1" accumulate="none" id="flameanim4">
		</animate>
	<path id="flame2" fill="#FAED22" d="M314.246,442.501h-16.403h-16.402c0,0-17.238,10.701-10.723,36.166
		c0,0,7.804-10.916,13.419-8.344c0,0-0.674,33.814,13.707,47.514c14.379-13.697,13.707-47.514,13.707-47.514
		c5.617-2.572,13.703,8.344,13.703,8.344C331.768,453.203,314.246,442.501,314.246,442.501z"/>
	
		<animate  fill="#FFF" from="M311.246,442.502h-16.403h-16.402c0,0-17.238,10.701-10.723,36.166c0,0,7.804-10.917,13.419-8.344   c0,0-0.674,33.815,13.707,47.513c14.379-13.697,13.706-47.513,13.706-47.513c5.617-2.573,13.704,8.344,13.704,8.344   C331.768,453.203,314.246,442.502,314.246,442.502z" attributeType="XML" restart="always" calcMode="linear" additive="replace" to="M317.246,445.502h-16.403h-16.402c0,0-17.238,10.701-10.723,36.166c0,0,7.804-10.917,13.419-8.344   c0,0-0.674,33.815,13.707,47.513c14.379-13.697,13.706-47.513,13.706-47.513c5.617-2.573,13.704,8.344,13.704,8.344   C331.768,453.203,314.246,442.502,314.246,442.502z" dur="100ms" begin="0s;flameanim2.end" attributeName="d" xlink:href="#flame2" repeatCount="1" accumulate="none" id="flameanim1">
		</animate>
	
		<animate  fill="#FFF" from="M316.246,445.502h-16.403h-16.402c0,0-17.238,10.701-10.723,36.166c0,0,7.804-10.917,13.419-8.344   c0,0-0.674,33.815,13.707,47.513c14.379-13.697,13.706-47.513,13.706-47.513c5.617-2.573,13.704,8.344,13.704,8.344   C331.768,453.203,314.246,442.502,314.246,442.502z" attributeType="XML" restart="always" calcMode="linear" additive="replace" to="M311.246,442.502h-16.403h-16.402c0,0-17.238,10.701-10.723,36.166c0,0,7.804-10.917,13.419-8.344   c0,0-0.674,33.815,13.707,47.513c14.379-13.697,13.706-47.513,13.706-47.513c5.617-2.573,13.704,8.344,13.704,8.344   C331.768,453.203,314.246,442.502,314.246,442.502z" dur="80ms" begin="flameanim1.end" attributeName="d" xlink:href="#flame2" repeatCount="1" accumulate="none" id="flameanim2">
		</animate>
	<path id="p1" fill="#FFFFFF" d="M308.313,442.501h-10.42h-10.424c0,0-10.95,6.799-6.812,22.98c0,0,4.958-6.936,8.525-5.305
		c0,0-0.427,21.486,8.71,30.189c9.137-8.703,8.708-30.189,8.708-30.189c3.567-1.631,8.707,5.305,8.707,5.305
		C319.447,449.3,308.313,442.501,308.313,442.501z"/>
	
		<animate  fill="#FFF" from="M306.313,442.502h-10.42h-10.424c0,0-10.95,6.799-6.812,22.979c0,0,4.958-6.935,8.525-5.303   c0,0-0.427,21.485,8.71,30.188c9.137-8.703,8.708-30.188,8.708-30.188c3.567-1.632,8.707,5.303,8.707,5.303   C319.447,449.301,308.313,442.502,308.313,442.502z" attributeType="XML" restart="always" calcMode="linear" additive="replace" to="M310.313,445.502h-10.42h-10.424c0,0-10.95,36.799-6.812,22.979c0,0,4.958-6.935,8.525-5.303   c0,0-0.427,21.485,8.71,30.188c9.137-8.703,8.708-30.188,8.708-30.188c3.567-1.632,8.707,5.303,8.707,5.303   C319.447,449.301,308.313,442.502,308.313,442.502z" dur="90ms" begin="0s;animation2.end" attributeName="d" xlink:href="#p1" repeatCount="1" accumulate="none" id="animation1">
		</animate>
	
		<animate  fill="#FFF" from="M309.313,445.502h-10.42h-10.424c0,0-10.95,6.799-6.812,22.979c0,0,4.958-6.935,8.525-5.303   c0,0-0.427,21.485,8.71,30.188c9.137-8.703,8.708-30.188,8.708-30.188c3.567-1.632,8.707,5.303,8.707,5.303   C319.447,449.301,308.313,442.502,308.313,442.502z" attributeType="XML" restart="always" calcMode="linear" additive="replace" to="M307.313,442.502h-10.42h-10.424c0,0-10.95,6.799-6.812,22.979c0,0,4.958-6.935,8.525-5.303   c0,0-0.427,21.485,8.71,30.188c9.137-8.703,8.708-30.188,8.708-30.188c3.567-1.632,8.707,5.303,8.707,5.303   C319.447,449.301,308.313,442.502,308.313,442.502z" dur="120ms" begin="animation1.end" attributeName="d" xlink:href="#p1" repeatCount="1" accumulate="none" id="animation2">
		</animate>
	<polygon fill="#1897D4" points="325.617,451.164 270.908,451.164 261.037,398.249 333.46,398.249 	"/>
	<polygon fill="#2BACE2" points="310.854,445.203 275.961,445.203 269.665,411.453 315.858,411.453 	"/>
	<path fill="#1897D4" d="M338.578,211.22c-9.574,9.797-24.135,16.017-40.416,15.928c-16.285-0.088-30.776-6.466-40.242-16.366
		c-9.29,21.907-16.534,47.863-16.688,75.731c-0.269,49.489,9.613,76.492,24.688,102.113l32.766,0.18l29.948,0.163
		c15.355-25.455,25.529-52.349,25.8-101.839C354.587,259.261,347.626,233.229,338.578,211.22z"/>
	<path fill="#1897D4" d="M304.693,131.089c-2.01-2.776-3.514-30.239-4.521-57.513l-3.74-0.021
		c-1.303,27.246-3.097,54.666-5.126,57.404c-8.551,11.521-23.744,33.971-36.617,63.409c10.74,10.787,25.055,18.152,42.85,18.25
		c17.795,0.097,32.413-6.737,43.271-17.408C328.246,165.602,313.179,142.802,304.693,131.089z"/>
	<circle fill="#2BACE2" cx="296.521" cy="263.429" r="26.404"/>
	<path fill="#0B8FBD" d="M338.354,211.587c-9.573,9.797-24.134,16.017-40.415,15.928c-0.463-0.002-0.918-0.028-1.378-0.041v161.688
		l1.903,0.01l29.949,0.163c15.354-25.456,25.528-52.349,25.799-101.839C354.365,259.629,347.403,233.596,338.354,211.587z"/>
	<path fill="#07A7D8" d="M298.039,237.025c-0.497,0-0.989,0.017-1.479,0.043v52.72c0.49,0.027,0.982,0.043,1.479,0.043
		c14.583,0,26.403-11.821,26.403-26.403C324.441,248.845,312.621,237.025,298.039,237.025z"/>
	<polygon fill="#0B8FBD" points="297.519,398.249 297.519,451.164 326.353,451.164 334.197,398.249 	"/>
	<polygon fill="#07A7D8" points="297.519,411.453 297.519,445.203 311.591,445.203 316.593,411.453 	"/>
	<path fill="#02546F" d="M316.871,263.429c0,10.758-8.721,19.479-19.479,19.479c-10.761,0-19.483-8.721-19.483-19.479
		c0-10.76,8.722-19.481,19.483-19.481C308.15,243.948,316.871,252.669,316.871,263.429z"/>
	<path fill="#0A677D" d="M298.039,243.948c-0.499,0-0.99,0.025-1.479,0.062v38.838c0.489,0.037,0.98,0.062,1.479,0.062
		c10.757,0,19.478-8.721,19.478-19.479C317.517,252.669,308.796,243.948,298.039,243.948z"/>
	<path fill="#0B8FBD" d="M304.694,131.668c-2.01-2.775-3.514-30.239-4.522-57.513l-3.176-0.018V213.18
		c0.183,0.002,0.361,0.016,0.544,0.017c17.794,0.097,32.414-6.737,43.271-17.408C328.246,166.181,313.18,143.382,304.694,131.668z"
		/>
</g>
</svg>
